<svg xmlns="http://www.w3.org/2000/svg" viewBox="0 0 760 620" role="img" aria-labelledby="title desc">
  <title id="title">E-commerce shopping display</title>
  <desc id="desc">A modern shopping display with product boxes, a bag, and a laptop.</desc>
  <rect x="110" y="300" width="500" height="230" rx="26" fill="#f6f7fb"/>
  <rect x="160" y="330" width="250" height="150" rx="18" fill="#ffffff" stroke="#d9e2df" stroke-width="6"/>
  <rect x="190" y="360" width="190" height="16" rx="8" fill="#0f766e"/>
  <rect x="190" y="395" width="130" height="14" rx="7" fill="#d95f45"/>
  <rect x="190" y="430" width="160" height="14" rx="7" fill="#9ca3af"/>
  <path d="M434 312h140l28 198H406z" fill="#d95f45"/>
  <path d="M458 312c0-52 80-52 80 0" fill="none" stroke="#ffffff" stroke-width="16" stroke-linecap="round"/>
  <rect x="470" y="382" width="66" height="66" rx="12" fill="#ffffff" opacity="0.95"/>
  <rect x="238" y="152" width="170" height="120" rx="18" fill="#0f766e"/>
  <rect x="265" y="188" width="116" height="18" rx="9" fill="#ffffff" opacity="0.9"/>
  <rect x="265" y="222" width="82" height="14" rx="7" fill="#c8eee7"/>
  <rect x="430" y="170" width="120" height="94" rx="16" fill="#f2bf4b"/>
  <path d="M430 208h120" stroke="#ffffff" stroke-width="8" opacity="0.6"/>
  <circle cx="170" cy="265" r="48" fill="#ffffff" opacity="0.35"/>
  <circle cx="610" cy="265" r="38" fill="#ffffff" opacity="0.26"/>
</svg>
